<?xml version="1.0" encoding="UTF-8" standalone="no"?>
<svg
   width="1226pt"
   height="744pt"
   viewBox="0 0 1226 744"
   version="1.1"
   id="svg512"
   sodipodi:docname="logo ds (4).svg"
   inkscape:version="1.2.1 (9c6d41e410, 2022-07-14)"
   xmlns:inkscape="http://www.inkscape.org/namespaces/inkscape"
   xmlns:sodipodi="http://sodipodi.sourceforge.net/DTD/sodipodi-0.dtd"
   xmlns="http://www.w3.org/2000/svg"
   xmlns:svg="http://www.w3.org/2000/svg">
  <defs
     id="defs516" />
  <sodipodi:namedview
     id="namedview514"
     pagecolor="#ffffff"
     bordercolor="#666666"
     borderopacity="1.0"
     inkscape:pageshadow="2"
     inkscape:pageopacity="0.0"
     inkscape:pagecheckerboard="0"
     inkscape:document-units="pt"
     showgrid="false"
     inkscape:zoom="0.18889445"
     inkscape:cx="1103.791"
     inkscape:cy="635.27541"
     inkscape:window-width="1366"
     inkscape:window-height="715"
     inkscape:window-x="-8"
     inkscape:window-y="-8"
     inkscape:window-maximized="1"
     inkscape:current-layer="svg512"
     inkscape:showpageshadow="2"
     inkscape:deskcolor="#d1d1d1" />
  <path
     fill="#000000"
     opacity="1"
     d="m 623.1159,84.597538 c 8.55354,-0.672751 17.14553,-1.121251 25.73111,-0.762451 7.8872,0.07048 15.58859,1.928552 23.3028,3.357346 l 0.42928,0.121736 c 0.57664,0.365207 1.20454,0.512571 1.8837,0.435686 l 0.0448,0.01281 c 8.07941,2.550045 16.15242,5.292305 23.5719,9.456951 12.91681,7.349004 25.19291,16.222904 34.87411,27.595604 7.18882,8.0666 13.10902,17.17756 18.18989,26.69859 l 0.15378,0.30113 c 2.63333,5.36919 4.81176,10.937 6.93253,16.52404 l 0.0705,0.19221 c 1.3455,4.58752 2.691,9.16863 3.79944,13.82022 l 0.032,0.13455 c 3.12028,14.34561 4.05573,29.01798 5.20261,43.61346 0.0705,7.47074 0.73682,14.92866 0.63431,22.4058 0.25628,5.29871 -0.19863,10.61024 0.23706,15.90254 -0.032,8.18193 -0.0705,16.37027 0.0192,24.5586 -0.64712,20.04156 -0.032,40.16642 2.29376,60.09265 2.01185,13.66645 5.13853,27.19194 9.53384,40.29456 l 0.0448,0.12814 c 1.28143,4.2095 2.82555,8.3357 4.3953,12.44909 1.44161,3.91477 4.79896,6.61858 7.92564,9.18144 7.7975,6.04194 17.30571,9.39929 26.83314,11.55209 10.83449,2.49238 22.17514,2.88963 33.12496,0.92904 l 0.1794,-0.032 c 5.88817,-0.87778 11.69307,-2.36424 17.26088,-4.47859 l 0.0961,-0.032 c 6.3687,-2.0631 12.34016,-5.18338 18.18989,-8.39977 2.74867,-1.5185 5.43967,-3.1395 7.95768,-5.02321 l 0.10251,-0.0641 c 3.08825,-1.82604 6.11242,-3.8571 8.6945,-6.3687 0.12174,-0.12815 0.37803,-0.38443 0.49976,-0.51258 l 0.21144,-0.12173 c 4.46578,-2.76789 7.96408,-6.79158 11.71226,-10.41802 1.92856,-2.10796 4.00447,-4.15184 5.42045,-6.66344 0.0833,-0.0961 0.24347,-0.29473 0.32677,-0.39084 3.4983,-3.66488 6.06116,-8.09222 8.7009,-12.39142 2.56286,-4.70925 5.15776,-9.45695 6.88769,-14.55064 l 0.006,-0.0128 c 2.55645,-5.71518 3.9468,-11.85322 5.38841,-17.9272 1.44161,-8.45103 1.21736,-17.69655 -3.24202,-25.26979 -4.77973,-7.68218 -12.78867,-12.55161 -20.75275,-16.38949 -8.89313,-4.02369 -18.1066,-7.38104 -27.60841,-9.62994 l -0.1858,-0.0513 c -8.84828,-2.43472 -17.79906,-4.51063 -26.77548,-6.41356 l -0.0897,-0.0256 c -2.24891,-0.83933 -4.60035,-1.33909 -6.96459,-1.7043 -3.51111,-0.54461 -6.75954,-2.17843 -10.3091,-2.49879 l -0.21784,-0.39083 c -9.01486,-3.06262 -18.08098,-6.40715 -25.94895,-11.89167 -9.46977,-6.21493 -17.04943,-15.38356 -20.79761,-26.11554 -0.37161,-1.26861 -1.05077,-2.60771 -0.48694,-3.92117 3.82507,-12.28251 12.73741,-22.17514 22.30969,-30.40192 13.29483,-11.50083 28.56948,-20.64383 44.86928,-27.19835 l 0.0769,-0.032 c 5.06805,-1.89652 10.28347,-3.35094 15.422,-5.05524 l 0.10892,-0.032 c 4.72207,-0.76886 9.30959,-2.22328 14.0637,-2.81274 2.05028,-0.26269 4.09416,-0.60868 6.13164,-0.99311 l 0.20503,-0.0256 c 12.53238,-1.6082 25.20572,-1.63383 37.82139,-1.42239 8.16271,-0.032 16.26135,1.08281 24.41124,1.3455 0.19862,0.0192 0.60227,0.0513 0.80089,0.0641 2.93448,0.58305 5.93302,0.66635 8.89953,1.03155 -0.69197,1.56975 -1.40316,3.1331 -2.15921,4.67722 l -0.0128,0.0256 c -4.67081,8.48306 -8.72654,17.30571 -12.76945,26.10272 l -0.18581,0.41006 c -2.27453,4.69003 -4.52344,9.4121 -6.31104,14.31357 l -0.0512,0.13455 c -0.78808,1.95418 -1.61461,4.15824 -0.87778,6.25338 1.01233,2.33861 3.73536,3.15231 6.06116,3.39579 3.38297,0.19862 6.82361,0.12814 10.15533,-0.57665 0.21784,-0.0256 0.65994,-0.0833 0.87778,-0.10892 2.23609,-0.22425 4.45937,-0.6279 6.70828,-0.74964 0.24988,2.51161 0.42928,5.02962 0.46132,7.55403 -4.25435,0.37162 -8.47666,1.07 -12.64771,1.967 l -0.19862,0.032 c -5.08728,0.27551 -10.1233,1.09563 -15.1401,1.89652 l -0.30754,0.0448 c -6.75313,0.51898 -13.45501,1.60819 -20.20815,1.99903 -0.48694,-5.04883 -3.30609,-9.45695 -6.09319,-13.54471 0.0705,-1.30706 0.8073,-2.48598 1.24939,-3.70333 2.03747,-4.68363 4.07495,-9.37366 5.90098,-14.14699 l 0.0705,-0.16018 c 1.92215,-4.35686 3.70974,-8.82905 4.54908,-13.5383 0.30113,-2.21688 0.30113,-4.56189 -0.69197,-6.61859 l -0.0385,-0.0961 c -1.13406,-3.04981 -4.06854,-4.85662 -7.03505,-5.78566 -5.76643,-2.17202 -12.00059,-2.06951 -18.06175,-2.00544 -10.66149,-0.28191 -21.07311,2.53723 -31.24125,5.40123 -10.63587,3.3125 -21.1308,7.63732 -30.17129,14.24309 -8.30366,5.93943 -14.98632,14.17902 -18.79216,23.66801 -0.7112,1.60819 -1.08281,3.32531 -1.38395,5.04242 l -0.0897,0.36521 c -0.33317,0.59587 -0.46772,1.23658 -0.39724,1.91574 l -0.0448,0.22425 c -1.57616,5.22183 1.37754,10.91137 5.6447,13.95477 9.99515,6.7211 20.59898,12.6349 31.92043,16.82517 9.80934,3.84429 20.1697,6.07398 30.58132,7.57325 l 0.1794,0.032 c 8.84827,1.48645 17.82469,2.01825 26.68577,3.40219 5.8177,1.53131 11.54569,3.4086 17.19038,5.49093 l 0.13455,0.0513 c 5.63189,2.55645 11.67383,4.70925 16.26135,9.01485 6.06757,4.99758 10.80245,11.58413 13.60878,18.92672 l 0.0577,0.14096 c 3.1331,9.5018 2.44754,19.86856 -0.0512,29.43444 l -0.0385,0.13455 c -2.23609,7.40025 -4.97194,14.64674 -8.31647,21.61772 l -0.13455,0.2691 c -2.09514,4.10057 -4.47219,8.04097 -6.79158,12.0134 l -0.14096,0.21144 c -2.76789,4.11339 -5.76643,8.04738 -8.79061,11.97496 l -0.0641,0.0769 c -7.97049,9.26474 -16.70343,17.9272 -26.46793,25.30824 -12.51316,9.63635 -26.16679,17.88235 -40.92246,23.59112 l -0.60227,0.24988 c -1.83885,0.57024 -3.6777,1.14688 -5.4653,1.85167 l -0.14095,0.0512 c -3.55597,1.0764 -7.18242,1.89652 -10.75122,2.92166 -3.80584,0.78808 -7.68217,1.21095 -11.45598,2.1464 h -0.006 c -9.44413,0.92903 -19.0036,1.03155 -28.44133,0.0128 l -0.19221,-0.032 c -8.09864,-1.4288 -16.35105,-2.48598 -23.98837,-5.70237 -11.86604,-4.70284 -21.46395,-14.05087 -27.85828,-24.95584 -6.52888,-10.937 -9.87342,-23.37328 -12.48753,-35.73267 l -0.0256,-0.13455 c -0.69197,-4.58111 -1.20454,-9.18785 -1.95418,-13.75615 -0.0192,-0.23706 -0.0577,-0.69837 -0.0833,-0.93544 -0.13455,-2.56927 -0.68557,-5.10009 -0.66635,-7.67576 -0.14736,-2.06951 0.16018,-4.31201 -0.89059,-6.18931 -0.39724,0.93545 -0.74964,1.89011 -1.10844,2.84478 l -0.1858,0.46772 c -0.67276,1.56334 -1.22377,3.17154 -1.79401,4.77332 l -0.0512,0.13455 c -7.45152,18.49103 -16.68422,36.37339 -28.78732,52.27593 -13.76256,18.27959 -31.17719,33.86818 -51.21234,44.99099 -10.1297,5.70877 -20.90012,10.15534 -31.88197,13.90992 l -0.1794,0.0641 c -11.0267,3.15872 -22.34173,5.66392 -33.86178,5.79847 -4.69644,0 -9.4121,0.14736 -14.08291,-0.45491 -5.42686,-0.30114 -10.68072,-1.76838 -15.99225,-2.80633 l -0.0961,-0.0256 c -5.51656,-1.84526 -11.13563,-3.4086 -16.53045,-5.61907 -2.83836,-1.07 -5.59344,-2.35783 -8.48947,-3.27405 l -0.66634,-0.23707 -0.25629,-0.12814 -0.32676,-0.1794 c -1.30065,-0.82012 -2.71023,-1.41598 -4.12621,-1.99262 l -0.46131,-0.20503 c -12.91041,-6.09961 -25.37872,-13.0834 -37.66763,-20.34911 l -0.14095,-0.0897 c -6.72751,-4.26075 -13.49987,-8.46384 -20.24019,-12.69897 l -0.2435,-0.16027 c -8.66887,-5.88177 -17.58762,-11.38551 -26.30134,-17.19038 -3.65208,3.19716 -6.8941,6.83642 -10.62946,9.9503 -7.4323,7.07349 -15.45405,13.50627 -23.08496,20.3491 -0.0961,0.0769 -0.28832,0.23707 -0.38443,0.32036 -2.22328,1.29424 -4.09417,3.08824 -6.15727,4.61315 -10.72556,8.44462 -21.83556,16.38948 -33.17621,23.98836 -6.77236,4.32483 -13.46142,8.80342 -20.48366,12.69897 -13.42938,6.21493 -28.15941,10.13611 -43.04322,9.58509 -4.74129,0.19862 -9.36725,-0.99311 -14.05728,-1.42238 l -0.0705,-0.0128 c -3.38298,-1.08921 -6.81081,-2.03107 -10.18097,-3.15872 l -0.0897,-0.032 c -10.87291,-4.29926 -20.90009,-11.0652 -28.19784,-20.27868 -8.1627,-9.8542 -13.51267,-21.72024 -17.04301,-33.94508 l -0.0513,-0.17299 c -0.8009,-2.92166 -1.14688,-5.93302 -1.91574,-8.86109 l -0.0192,-0.1858 c 0.11533,-1.2558 -0.0577,-2.49879 -0.51898,-3.66489 l -0.0897,-0.33317 c -0.19862,-4.60034 -0.25628,-9.20708 -0.0705,-13.80741 0.83293,-7.84876 2.46675,-15.60141 5.13853,-23.0337 l 0.0513,-0.14096 c 1.75556,-4.29279 3.63926,-8.53432 5.8241,-12.62208 l 0.0641,-0.11533 c 3.59441,-6.04194 7.14397,-12.15436 11.55209,-17.6581 12.84633,-16.59451 30.36348,-30.10078 50.70618,-35.9441 4.44015,-1.32628 9.07252,-1.74915 13.61519,-2.6013 0.34599,-0.0256 1.05077,-0.0897 1.39676,-0.12174 2.13999,-0.0192 4.28638,-0.0128 6.42637,-0.006 0.39724,0.032 1.19814,0.0961 1.59538,0.12815 4.81177,0.76885 9.66198,1.40316 14.40968,2.53082 l 0.12173,0.032 c 2.03748,0.76245 4.13261,1.3519 6.24056,1.90292 l 0.19863,0.0641 c 1.6146,0.73682 3.27405,1.37754 4.99117,1.83244 l 0.75604,0.23066 c 0.0641,0.032 0.19862,0.0897 0.26269,0.12174 l 0.37802,0.20503 c 1.59538,1.01873 3.38939,1.64023 5.13854,2.33861 30.96575,13.02573 58.81121,32.18951 85.74687,52.01323 2.57567,1.67226 4.46578,4.22872 7.12474,5.77925 0,0 0,0 70.00184,-57.78096 -62.53751,63.50254 -62.53751,63.50254 -62.53751,63.50254 20.81683,15.20416 42.32563,29.6651 65.46825,41.12108 13.32046,6.44559 27.16631,12.00699 41.54395,15.53093 l 0.23065,0.0641 c 16.3062,4.63877 33.58628,5.69595 50.36019,3.32531 4.08776,-0.77527 8.21397,-1.47365 12.16718,-2.79352 l 0.14736,-0.0384 c 0.32036,-0.12174 0.96107,-0.3588 1.28143,-0.48054 l 0.57024,-0.13455 c 4.35686,-1.04436 8.67528,-2.46675 12.66052,-4.53626 l 0.4485,-0.23066 c 0.0705,-0.0256 0.21144,-0.0833 0.27551,-0.10892 l 0.75604,-0.24347 c 9.0469,-3.5816 17.42745,-8.77779 25.2698,-14.5186 8.41899,-5.96505 15.74236,-13.30765 22.70693,-20.8809 2.22328,-2.73585 4.68363,-5.30511 6.56733,-8.29725 l 0.0384,-0.0513 c 4.40812,-5.34356 8.16912,-11.22532 11.54568,-17.27367 l 0.0833,-0.14096 c 4.25434,-7.25289 7.86798,-14.89662 10.78323,-22.78382 l 0.10892,-0.2691 c 0.99952,-2.19765 1.7043,-4.49782 2.46035,-6.77876 l 0.0448,-0.14096 c 2.1592,-5.97787 3.69051,-12.15436 5.14494,-18.33085 1.32628,-6.84924 2.85758,-13.70489 3.11387,-20.7015 l 0.0384,-0.38443 c 1.2558,-8.34211 1.31347,-16.79954 1.22377,-25.21853 0.0897,-7.72703 -0.87778,-15.40279 -1.56975,-23.08496 -0.4421,-3.56878 -0.74323,-7.15679 -1.5185,-10.6679 l -0.0256,-0.16018 c -1.89651,-13.01292 -4.98476,-25.85925 -8.90593,-38.41086 l -0.0641,-0.20503 c -0.57665,-2.07591 -1.12766,-4.15824 -1.90933,-6.16367 l -0.0577,-0.14737 c -3.63272,-13.62203 -10.69981,-26.05189 -19.25976,-37.15548 -11.09718,-14.23669 -26.31416,-25.37872 -43.55579,-30.87605 l -0.12815,-0.0449 c -21.73945,-7.40667 -45.55482,-7.03505 -67.75559,-1.90292 l -0.10892,0.0256 c -3.43423,0.67276 -6.90691,1.26221 -10.20018,2.5052 l -0.0961,0.0256 c -4.96554,1.12766 -9.82216,2.72304 -14.58908,4.51063 l -0.10892,0.0384 c -7.14397,2.3258 -14.1598,5.11291 -20.977,8.27163 l -0.0769,0.0448 c -9.84138,4.00447 -19.19582,9.10456 -28.67199,13.8907 -3.26765,1.72352 -6.58655,3.36375 -9.71964,5.31793 l -0.0448,0.0192 c -1.96059,0.93544 -3.86351,1.9798 -5.71518,3.12028 l -0.0769,0.0448 c -6.38792,3.45986 -12.69256,7.0863 -18.94593,10.78963 l -0.30755,0.173 c -2.58208,1.42879 -5.18338,2.83196 -7.57325,4.56829 l -0.0384,0.0192 c -1.15969,0.53179 -2.37705,0.91622 -3.63285,1.12765 l 0.89059,0.28833 c -9.50821,5.67032 -19.15097,11.12281 -28.58229,16.91487 l -0.10251,0.0577 c -12.57083,7.07349 -24.8277,14.69159 -37.39212,21.7779 -9.54025,5.47811 -19.34318,10.47569 -29.17175,15.4156 l -0.0897,0.0448 c -6.58014,2.99855 -13.05777,6.22775 -19.75965,8.9636 h -0.0641 c -9.93748,3.88914 -20.19533,6.88128 -30.67102,8.92516 v 0 c -2.17202,-0.0192 -4.45297,0.97389 -6.53529,0.46131 -2.26813,-10.89215 -3.60722,-22.01496 -6.37511,-32.811 l -0.0449,-0.21785 c 0.16018,-0.74323 -0.006,-1.35831 -0.50617,-1.84526 l -0.0769,-0.60227 c -0.51257,-4.3953 -1.91574,-8.6048 -2.74226,-12.93603 -0.4421,-2.28735 -1.02515,-4.54267 -1.68508,-6.77236 l -0.0513,-0.22425 c -0.41646,-2.56926 -0.96107,-5.1129 -1.42239,-7.66935 1.93496,-0.49976 3.84429,-1.09563 5.72159,-1.80041 l 0.0833,-0.0256 c 0.95467,-0.2691 1.91574,-0.52539 2.87681,-0.77527 2.25532,6.83643 3.71615,13.95477 6.78517,20.49647 2.00544,4.18387 6.96457,6.40715 11.4688,5.75362 4.38889,-0.62149 8.66246,-1.92855 12.74381,-3.64567 l 0.0961,-0.032 c 1.72353,-0.51898 3.39579,-1.17251 5.04243,-1.90933 l 0.0705,-0.032 c 2.61411,-0.87778 5.10649,-2.04388 7.6245,-3.16513 l 0.12174,-0.0513 c 6.84924,-2.85118 13.58315,-6.00349 20.14407,-9.45695 l 0.5382,-0.22425 c 16.3126,-8.09863 32.01653,-17.38259 47.86781,-26.34619 3.15873,-1.72993 6.33026,-3.45986 9.316,-5.47811 l 0.23706,-0.0897 c 1.44161,-0.36521 2.61412,-1.32628 3.8571,-2.08874 25.65423,-14.91584 51.40456,-29.71635 78.07752,-42.74849 l 0.13455,-0.0641 c 4.02368,-1.89652 8.11145,-3.67771 12.09028,-5.67674 l 0.14096,-0.0577 c 5.05524,-2.06951 10.04641,-4.28638 15.10806,-6.34308 l 0.34598,-0.14096 c 16.1268,-6.266187 32.73413,-11.417534 49.80277,-14.332787 3.3189,-0.5382 6.69547,-0.800893 9.97593,-1.601787 l 0.15377,-0.01922 M 281.33937,346.11172 c -8.6112,6.90691 -14.89021,16.42793 -18.72168,26.72422 0.0256,0.32035 0.0769,0.97388 0.0961,1.29424 l -0.19863,0.58305 -0.30754,-0.19862 c -1.32628,2.16562 -1.58897,4.79255 -2.24891,7.21445 -2.58849,9.86701 -2.29376,20.4324 0.49976,30.22252 3.30609,10.37317 8.65606,20.19533 16.20368,28.08894 13.3589,14.15339 33.22747,21.2397 52.48736,20.63742 12.08388,0.23707 23.95633,-3.0498 35.10477,-7.47073 0.97388,-0.48694 2.22968,-0.68557 2.86399,-1.65305 l 0.19222,-0.0448 0.76885,-0.0128 c 9.84138,-4.2095 19.02924,-9.79653 28.02487,-15.56296 0.74964,-0.46132 1.48646,-0.96748 1.95418,-1.72993 l 0.006,-0.006 c 2.62052,-0.76245 4.53626,-2.94088 6.8108,-4.36327 15.85128,-11.34706 30.51084,-24.27669 44.29262,-38.03283 -3.44705,-2.83837 -7.41307,-5.00399 -11.05234,-7.59247 -11.77633,-7.93205 -23.79614,-15.48608 -36.0338,-22.68772 -0.65353,-0.3588 -1.33909,-0.64071 -2.05669,-0.84574 l -0.0513,-0.0128 c -1.01874,-1.40317 -2.83196,-1.83886 -4.3056,-2.60771 l -0.12174,-0.0128 c -4.33123,-2.96651 -9.18144,-5.13212 -13.76896,-7.67576 -1.81963,-0.85856 -3.4919,-2.17843 -5.53578,-2.44753 l -0.0705,-0.0513 c -1.19173,-1.51849 -3.24842,-2.03747 -5.00398,-2.63975 l -0.12814,0.0833 c -0.5318,-0.92263 -1.62101,-1.17251 -2.49879,-1.62742 -6.26619,-2.92807 -12.48753,-5.95224 -18.85624,-8.64965 -0.93544,-0.38443 -1.93496,-0.60868 -2.94088,-0.70479 h -0.10892 c -4.61956,-2.21046 -9.9439,-2.18483 -14.91584,-3.11387 -17.83751,-1.26221 -36.19399,3.91477 -50.37941,14.89662 z"
     id="path5"
     sodipodi:nodetypes="ccccccccccccscccccccccccscccccccccccccccccccsccccccccccccccccccccccccccccccccccccccccccccccccccccccccccccccccccccccccccccccccccccccccccccccccccccccccccccccccccccccccccccccccccccccccccccccccccccccccccccccccccccccccccccccccccccccccsccccccccccccccccccccccccccscccccsscccccccccccccccccccccccccccccscccccccccccccccccccccccccccccccccccccccc"
     style="display:inline;fill:#ffffff;stroke-width:0.640715"
     inkscape:export-filename="C:\Users\Core\Downloads\Logo DS.png"
     inkscape:export-xdpi="1303.26"
     inkscape:export-ydpi="1303.26" />
  <g
     aria-label="Digital Seventy"
     id="text7017"
     style="font-size:250px;line-height:1.25;letter-spacing:0px;word-spacing:0px;stroke-width:0.75;fill:#ffffff">
    <path
       d="m 120.23267,521.06268 q 6.16455,-1.2207 12.26806,-2.13623 6.10352,-0.91552 11.77979,-1.46484 5.7373,-0.61035 10.86426,-0.85449 5.12695,-0.30518 9.33837,-0.30518 14.09913,0 24.65821,3.05176 10.62011,3.05176 17.63916,8.8501 7.08008,5.79834 10.62011,14.22119 3.54004,8.42285 3.54004,19.104 0,6.34766 -1.34277,12.93945 -1.28174,6.53077 -4.08936,12.63428 -2.80761,6.04248 -7.32421,11.41358 -4.45557,5.31005 -10.80323,9.33838 -6.34765,3.96728 -14.70947,6.28662 -8.30078,2.2583 -18.85986,2.2583 -2.86865,0 -5.5542,-0.18311 -2.62451,-0.12207 -5.3711,-0.30517 -2.80761,-0.18311 -5.85937,-0.36622 -2.99072,-0.12207 -6.53076,-0.12207 -3.60108,0 -7.20215,0.12207 -3.60107,0.18311 -6.53076,0.36622 -2.92969,0.1831 -4.82178,0.36621 -1.89209,0.12207 -2.07519,0.12207 0,-0.54932 0.1831,-1.52588 0.24414,-1.0376 1.40381,-2.13623 1.2207,-1.09864 3.78418,-2.01416 2.62451,-0.91553 7.44629,-1.28174 0.24414,-2.74658 0.36621,-6.5918 0.1831,-3.90625 0.24414,-8.48388 0.12207,-4.63868 0.12207,-9.70459 v -50.78125 q 0,-2.86866 -0.061,-4.94385 0,-2.13623 -0.061,-3.84522 l -7.32422,1.09864 q -3.66211,0.54931 -7.32422,1.2207 z m 38.33007,1.95313 q -4.15039,0 -9.15527,0.36621 -0.12207,3.05176 -0.1831,7.01904 -0.061,3.90625 -0.061,9.39942 v 29.72412 q 0,9.46045 0,15.74707 0.061,6.28662 0.061,10.19287 0.061,3.84521 0.12207,5.67627 0.12207,1.83105 0.30517,2.4414 0.18311,1.95313 1.09863,3.17383 0.97657,1.15967 2.56348,1.83106 1.64795,0.61035 3.84522,0.79345 2.19726,0.18311 4.88281,0.18311 8.91113,0 15.44189,-1.52588 6.53076,-1.58691 11.1084,-4.27246 4.57764,-2.74658 7.38525,-6.46973 2.86866,-3.72314 4.45557,-8.05664 1.58692,-4.33349 2.13623,-9.09424 0.54932,-4.82177 0.54932,-9.64355 0,-12.63428 -2.99072,-21.60645 -2.99073,-9.0332 -8.72803,-14.7705 -5.67627,-5.73731 -13.97705,-8.42286 -8.30078,-2.68554 -18.85987,-2.68554 z"
       style="font-family:Aldhabi;-inkscape-font-specification:Aldhabi;fill:#ffffff"
       id="path12147"
       inkscape:export-filename="C:\Users\Core\Downloads\Logo DS.png"
       inkscape:export-xdpi="1303.26"
       inkscape:export-ydpi="1303.26" />
    <path
       d="m 258.90454,547.42987 q -0.36621,4.39453 -0.61035,8.97217 -0.18311,4.5166 -0.30518,9.64355 -0.12207,5.06592 -0.1831,10.98633 0,5.85938 0,12.93945 v 4.08936 q 0,2.19727 0,4.3335 0.061,2.13623 0.12207,3.96728 0.061,1.77002 0.1831,2.80762 0.061,1.58691 0.30518,2.50244 0.30518,0.91553 1.40381,1.52588 1.15967,0.54932 3.41797,0.91553 2.31933,0.36621 6.40869,0.79345 l -2.19727,5.12696 q -0.48828,-0.061 -2.07519,-0.18311 -1.58692,-0.12207 -3.90625,-0.24414 -2.2583,-0.061 -5.06592,-0.12207 -2.74658,-0.061 -5.67627,-0.061 -3.60107,0 -6.7749,0.12207 -3.17383,0.12208 -5.5542,0.24415 -2.38037,0.12207 -3.90625,0.24414 -1.52588,0.1831 -1.83106,0.24414 0,-0.42725 0.12207,-1.34278 0.18311,-0.97656 1.09864,-2.01416 0.91552,-1.03759 2.86865,-2.01416 2.01416,-0.97656 5.67627,-1.46484 0.24414,-2.2583 0.36621,-4.94385 0.12207,-2.74658 0.18311,-5.31006 0.061,-2.62451 0.061,-4.82177 v -3.35694 q 0,-7.14111 -0.061,-12.14599 -0.061,-5.00489 -0.12208,-8.36182 -0.061,-3.35693 -0.1831,-5.31006 -0.061,-1.95312 -0.12207,-2.86865 -0.12207,-2.01416 -0.42725,-3.11279 -0.30517,-1.09864 -1.40381,-1.64795 -1.09863,-0.54932 -3.23486,-0.61036 -2.13623,-0.12207 -5.92041,-0.12207 l 1.2207,-5.00488 q 4.21143,-0.42724 8.11768,-1.09863 3.96729,-0.67139 7.26318,-1.40381 3.2959,-0.73242 5.79834,-1.40381 2.56348,-0.73242 3.96729,-1.2207 z m -2.80762,-29.54102 v 1.46485 q 0,2.92969 0.67139,5.37109 0.73242,2.44141 2.86865,4.63867 -1.58691,2.56348 -4.39453,3.84522 -2.80762,1.28174 -5.7373,1.28174 -1.77002,0 -3.41797,-0.48828 -1.64795,-0.54932 -2.92969,-1.58692 -1.28174,-1.09863 -2.07519,-2.74658 -0.73243,-1.64795 -0.73243,-3.96729 0,-1.28173 0.24414,-2.86865 0.30518,-1.64795 0.8545,-3.11279 l 14.40429,-2.19727 z"
       style="font-family:Aldhabi;-inkscape-font-specification:Aldhabi;fill:#ffffff"
       id="path12149"
       inkscape:export-filename="C:\Users\Core\Downloads\Logo DS.png"
       inkscape:export-xdpi="1303.26"
       inkscape:export-ydpi="1303.26" />
    <path
       d="m 306.38989,546.94159 q 2.86865,0 5.49317,0.42725 2.62451,0.42724 5.92041,0.91552 3.2959,0.48828 7.69043,0.91553 4.45556,0.42725 10.92529,0.42725 h 3.66211 q 1.70898,0 3.84521,-0.12207 l -2.07519,7.08007 q -2.0752,0.18311 -3.60108,0.24414 -1.46484,0 -2.01416,0 -1.70898,0 -3.479,-0.061 -1.70898,-0.061 -4.57764,-0.42725 l -0.24414,0.36621 q 2.56348,4.21143 3.72315,8.36182 1.15967,4.15039 1.15967,7.99561 0,5.49316 -2.13624,10.31494 -2.07519,4.76074 -5.92041,8.30078 -3.78418,3.54004 -9.09423,5.61523 -5.31006,2.01416 -11.65772,2.01416 -4.45556,0 -8.30078,-1.09863 -1.77002,1.77002 -2.68555,3.05176 -0.85449,1.28174 -0.85449,2.50244 0,1.40381 1.15967,2.2583 1.15967,0.85449 3.23486,1.40381 2.13623,0.48828 5.06592,0.79346 2.99072,0.24414 6.53076,0.48828 3.72315,0.24414 7.6294,0.54931 3.96728,0.30518 7.69043,1.0376 3.78418,0.67139 7.14111,1.89209 3.35693,1.15967 5.85937,3.23486 2.56348,2.01416 4.02832,5.00489 1.46485,3.05176 1.46485,7.32422 0,4.27246 -1.52588,8.30078 -1.52588,4.02832 -4.27246,7.50732 -2.68555,3.54004 -6.53076,6.40869 -3.78418,2.92969 -8.42285,5.00489 -4.57764,2.07519 -9.82666,3.23486 -5.18799,1.15967 -10.80323,1.15967 -6.40869,0 -11.59668,-1.52588 -5.18799,-1.46485 -8.85009,-4.08936 -3.66211,-2.56347 -5.67627,-6.10351 -1.95313,-3.47901 -1.95313,-7.50733 0,-4.94384 3.11279,-9.88769 3.17383,-4.88281 9.82666,-9.82666 -3.479,-1.0376 -5.31005,-2.62451 -1.77002,-1.52588 -1.77002,-4.27247 0,-1.64794 0.73242,-3.41796 0.73242,-1.83106 2.19726,-3.84522 1.52588,-2.07519 3.84522,-4.45557 2.31933,-2.4414 5.43213,-5.31005 -6.40869,-3.1128 -9.64356,-8.97217 -3.17383,-5.92041 -3.17383,-13.3667 0,-7.01904 2.56348,-12.146 2.56348,-5.12695 6.5918,-8.48388 4.08935,-3.35694 9.21631,-4.94385 5.12695,-1.64795 10.2539,-1.64795 z m -15.68603,74.58496 q -2.74658,3.2959 -3.84522,6.7749 -1.0376,3.47901 -1.0376,6.10352 0,3.66211 1.64795,6.71387 1.70899,3.05175 4.69971,5.24902 2.99072,2.19726 7.14111,3.35693 4.21143,1.22071 9.27735,1.22071 5.49316,0 9.39941,-1.40381 3.96729,-1.34278 6.53076,-3.60108 2.56348,-2.19726 3.78418,-5.06592 1.22071,-2.86865 1.22071,-5.79834 0,-3.479 -1.64795,-5.7373 -1.58692,-2.19727 -4.39453,-3.479 -2.74659,-1.28174 -6.53077,-1.89209 -3.78418,-0.61036 -8.11767,-0.97657 -4.27246,-0.30517 -8.91113,-0.54931 -4.63868,-0.30518 -9.21631,-0.91553 z m 28.44238,-44.18945 q 0,-3.78418 -0.85449,-7.87354 -0.79346,-4.15039 -2.68555,-7.56836 -1.83105,-3.41797 -4.94385,-5.61523 -3.05175,-2.2583 -7.56836,-2.2583 -3.35693,0 -5.61523,1.28174 -2.2583,1.28173 -3.60107,3.41796 -1.34278,2.13623 -1.89209,4.88282 -0.54932,2.74658 -0.54932,5.67627 0,3.78418 0.85449,7.87353 0.91553,4.08936 2.86865,7.50733 1.95313,3.35693 5.06592,5.5542 3.11279,2.13623 7.6294,2.13623 3.29589,0 5.49316,-1.22071 2.19727,-1.28174 3.479,-3.35693 1.28174,-2.0752 1.77002,-4.76074 0.54932,-2.74659 0.54932,-5.67627 z"
       style="font-family:Aldhabi;-inkscape-font-specification:Aldhabi;fill:#ffffff"
       id="path12151"
       inkscape:export-filename="C:\Users\Core\Downloads\Logo DS.png"
       inkscape:export-xdpi="1303.26"
       inkscape:export-ydpi="1303.26" />
    <path
       d="m 375.17651,547.42987 q -0.36621,4.39453 -0.61035,8.97217 -0.1831,4.5166 -0.30517,9.64355 -0.12207,5.06592 -0.18311,10.98633 0,5.85938 0,12.93945 v 4.08936 q 0,2.19727 0,4.3335 0.061,2.13623 0.12207,3.96728 0.061,1.77002 0.18311,2.80762 0.061,1.58691 0.30517,2.50244 0.30518,0.91553 1.40381,1.52588 1.15967,0.54932 3.41797,0.91553 2.31934,0.36621 6.40869,0.79345 l -2.19726,5.12696 q -0.48829,-0.061 -2.0752,-0.18311 -1.58691,-0.12207 -3.90625,-0.24414 -2.2583,-0.061 -5.06592,-0.12207 -2.74658,-0.061 -5.67627,-0.061 -3.60107,0 -6.7749,0.12207 -3.17383,0.12208 -5.5542,0.24415 -2.38037,0.12207 -3.90625,0.24414 -1.52588,0.1831 -1.83105,0.24414 0,-0.42725 0.12207,-1.34278 0.1831,-0.97656 1.09863,-2.01416 0.91553,-1.03759 2.86865,-2.01416 2.01416,-0.97656 5.67627,-1.46484 0.24414,-2.2583 0.36621,-4.94385 0.12207,-2.74658 0.18311,-5.31006 0.061,-2.62451 0.061,-4.82177 v -3.35694 q 0,-7.14111 -0.061,-12.14599 -0.061,-5.00489 -0.12207,-8.36182 -0.061,-3.35693 -0.18311,-5.31006 -0.061,-1.95312 -0.12207,-2.86865 -0.12207,-2.01416 -0.42724,-3.11279 -0.30518,-1.09864 -1.40381,-1.64795 -1.09864,-0.54932 -3.23487,-0.61036 -2.13623,-0.12207 -5.92041,-0.12207 l 1.22071,-5.00488 q 4.21142,-0.42724 8.11767,-1.09863 3.96729,-0.67139 7.26319,-1.40381 3.29589,-0.73242 5.79834,-1.40381 2.56347,-0.73242 3.96728,-1.2207 z m -2.80761,-29.54102 v 1.46485 q 0,2.92969 0.67138,5.37109 0.73243,2.44141 2.86866,4.63867 -1.58692,2.56348 -4.39454,3.84522 -2.80761,1.28174 -5.7373,1.28174 -1.77002,0 -3.41797,-0.48828 -1.64795,-0.54932 -2.92969,-1.58692 -1.28173,-1.09863 -2.07519,-2.74658 -0.73242,-1.64795 -0.73242,-3.96729 0,-1.28173 0.24414,-2.86865 0.30517,-1.64795 0.85449,-3.11279 l 14.4043,-2.19727 z"
       style="font-family:Aldhabi;-inkscape-font-specification:Aldhabi;fill:#ffffff"
       id="path12153"
       inkscape:export-filename="C:\Users\Core\Downloads\Logo DS.png"
       inkscape:export-xdpi="1303.26"
       inkscape:export-ydpi="1303.26" />
    <path
       d="m 444.69556,607.12225 q -2.50244,2.13623 -5.24903,4.02832 -2.68554,1.83106 -5.79834,3.2959 -3.11279,1.40381 -6.71386,2.19727 -3.60108,0.85449 -7.87354,0.85449 -5.24902,0 -8.72803,-1.40381 -3.479,-1.40381 -5.5542,-4.63867 -2.07519,-3.23486 -2.92968,-8.42285 -0.8545,-5.24903 -0.8545,-12.87842 0,-2.01416 0.061,-4.69971 0.061,-2.68554 0.12207,-5.7373 0.061,-2.99072 0.18311,-6.16455 0.12207,-3.23487 0.24414,-6.28662 0.1831,-3.05176 0.30517,-5.73731 0.18311,-2.68555 0.30518,-4.69971 -2.01416,0.061 -3.84522,0.18311 -1.77002,0.061 -3.23486,0.18311 -1.46484,0.12207 -2.50244,0.24414 -0.97656,0.061 -1.40381,0.12207 0,-0.61036 0.30518,-1.70899 0.36621,-1.15967 1.52587,-2.31933 1.15967,-1.15967 3.41797,-2.13623 2.2583,-0.97657 6.10352,-1.28174 l 0.85449,-9.76563 q 0.061,-0.97656 0.12207,-1.70898 0.12207,-0.73242 0.24414,-1.28174 0.18311,-0.61035 0.42725,-1.0376 0.24414,-0.48828 0.67138,-0.97656 0.61036,-0.73242 2.01416,-2.19727 1.46485,-1.46484 3.2959,-3.11279 1.83106,-1.64795 3.84522,-3.2959 2.01416,-1.64795 3.78418,-2.74658 l 1.2207,0.73242 q -1.28174,12.45117 -1.83105,25.26856 2.4414,0 5.43213,0 3.05175,-0.061 6.40869,-0.12207 3.35693,-0.061 6.83593,-0.12207 3.47901,-0.12207 6.83594,-0.24414 l -1.95312,7.08007 q -11.16944,0.36621 -19.77539,0.36621 h -4.15039 q -0.061,1.58692 -0.18311,4.63868 -0.18311,3.05175 -0.30518,6.83593 -0.12207,3.72315 -0.24414,7.8125 -0.12207,4.08936 -0.12207,7.69043 0,6.95801 0.54932,11.53565 0.54932,4.57764 1.89209,7.32422 1.34277,2.74658 3.60107,3.84521 2.2583,1.09863 5.73731,1.09863 4.08935,0 7.69043,-1.2207 3.60107,-1.2207 7.01904,-3.17383 z"
       style="font-family:Aldhabi;-inkscape-font-specification:Aldhabi;fill:#ffffff"
       id="path12155"
       inkscape:export-filename="C:\Users\Core\Downloads\Logo DS.png"
       inkscape:export-xdpi="1303.26"
       inkscape:export-ydpi="1303.26" />
    <path
       d="m 518.67017,611.27264 q -2.19727,1.34278 -5.00489,2.50245 -2.80761,1.09863 -5.67627,1.89209 -2.86865,0.85449 -5.49316,1.34277 -2.62451,0.48828 -4.45557,0.48828 -2.31933,0 -3.90625,-0.73242 -1.58691,-0.73242 -2.62451,-1.89209 -0.97656,-1.2207 -1.46484,-2.68555 -0.42725,-1.52588 -0.42725,-3.11279 v -3.66211 h -0.36621 q -6.34766,5.7373 -12.20703,8.91113 -5.79834,3.17383 -11.59668,3.17383 -3.41797,0 -6.28662,-1.15967 -2.80762,-1.09863 -4.82178,-3.05176 -2.01416,-1.95312 -3.17383,-4.63867 -1.09863,-2.68554 -1.09863,-5.79834 0,-3.96728 1.70898,-7.20215 1.77002,-3.23486 4.76075,-5.85937 3.05175,-2.62451 7.01904,-4.69971 4.02832,-2.07519 8.54492,-3.72314 4.5166,-1.64795 9.27735,-2.92969 4.82177,-1.28174 9.33837,-2.31934 v -1.83105 q 0,-5.12695 -1.15966,-8.54492 -1.09864,-3.47901 -3.1128,-5.5542 -1.95312,-2.13623 -4.63867,-3.05176 -2.68555,-0.91553 -5.85937,-0.91553 -4.69971,0 -7.20215,1.70899 -2.44141,1.70898 -2.44141,4.82177 0,1.70899 0.79346,3.2959 0.85449,1.52588 2.74658,3.23487 -0.67139,1.03759 -1.77002,1.95312 -1.0376,0.91553 -2.38037,1.58692 -1.28174,0.67138 -2.74658,1.09863 -1.40381,0.36621 -2.80762,0.36621 -1.46484,0 -2.74658,-0.42725 -1.28174,-0.42724 -2.2583,-1.2207 -0.97656,-0.85449 -1.58692,-2.01416 -0.54931,-1.15967 -0.54931,-2.62451 0,-2.2583 1.40381,-4.69971 1.46484,-2.44141 3.90625,-4.82178 2.4414,-2.38037 5.67627,-4.5166 3.29589,-2.13623 6.89697,-3.72314 3.66211,-1.64795 7.50732,-2.56348 3.84522,-0.97656 7.50733,-0.97656 5.7373,0 9.52148,2.31933 3.84522,2.31934 6.10352,5.98145 2.2583,3.60107 3.17383,8.05664 0.91552,4.45557 0.91552,8.72803 0,1.52588 -0.12207,4.08935 -0.061,2.50244 -0.1831,5.5542 -0.12207,3.05176 -0.30518,6.28662 -0.1831,3.23487 -0.30517,6.16455 -0.12208,2.92969 -0.24415,5.24903 -0.061,2.2583 -0.061,3.41797 0,2.01416 0.30518,3.2959 0.30517,1.28173 0.91552,2.01416 0.61035,0.73242 1.52588,1.03759 0.91553,0.30518 2.13623,0.30518 3.23487,0 7.93457,-1.83106 z M 489.7395,599.67596 q 0.18311,-3.60107 0.36621,-7.9956 0.24414,-4.39453 0.36621,-10.55908 -7.44629,1.58691 -12.26806,3.41797 -4.76074,1.83105 -7.6294,3.96728 -2.80761,2.0752 -3.90625,4.45557 -1.09863,2.38037 -1.09863,5.00488 0,2.50244 0.73242,4.27246 0.79346,1.70899 2.01416,2.80762 1.22071,1.09863 2.80762,1.58691 1.58691,0.48828 3.17383,0.48828 2.4414,0 5.06592,-0.91552 2.62451,-0.97657 4.82177,-2.2583 2.19727,-1.28174 3.72315,-2.50245 1.52588,-1.2207 1.83105,-1.77002 z"
       style="font-family:Aldhabi;-inkscape-font-specification:Aldhabi;fill:#ffffff"
       id="path12157"
       inkscape:export-filename="C:\Users\Core\Downloads\Logo DS.png"
       inkscape:export-xdpi="1303.26"
       inkscape:export-ydpi="1303.26" />
    <path
       d="m 548.51636,503.24042 q -0.24414,3.35693 -0.42725,8.05664 -0.12207,4.69971 -0.24414,10.31494 -0.061,5.61523 -0.12207,11.84082 -0.061,6.22559 -0.061,12.63428 v 45.04394 q 0,4.39453 0.061,7.93457 0.061,3.47901 0.18311,5.85938 0.061,1.64795 0.30517,2.62451 0.30518,0.97656 1.40381,1.58691 1.09863,0.54932 3.41797,0.97657 2.31933,0.36621 6.46973,0.79345 l -2.19727,5.12696 q -0.48828,-0.061 -2.0752,-0.18311 -1.52587,-0.12207 -3.84521,-0.24414 -2.2583,-0.061 -5.06592,-0.12207 -2.74658,-0.061 -5.61523,-0.061 -3.60108,0 -6.83594,0.12207 -3.23486,0.12208 -5.7373,0.24415 -2.50245,0.12207 -4.08936,0.24414 -1.58691,0.1831 -1.89209,0.24414 0,-0.36621 0.18311,-1.28174 0.1831,-0.97656 1.09863,-2.01416 0.97656,-1.09863 2.99072,-2.0752 2.01416,-0.97656 5.73731,-1.46484 0.12207,-2.50244 0.1831,-6.10352 0.12207,-3.60107 0.18311,-7.75146 0.061,-4.21143 0.12207,-8.78906 0.061,-4.57764 0.061,-9.15528 0.061,-4.57763 0.061,-8.91113 v -7.99561 q 0,-6.7749 -0.061,-13.42773 0,-6.65283 -0.061,-12.45117 -0.061,-5.79834 -0.12207,-10.37598 -0.061,-4.63867 -0.12207,-7.32422 -0.12207,-2.07519 -0.42725,-3.17383 -0.30518,-1.09863 -1.52588,-1.58691 -1.15967,-0.54932 -3.54004,-0.61035 -2.38037,-0.12207 -6.59179,-0.12207 l 1.2207,-5.00488 q 4.27246,-0.30518 8.30078,-0.79346 4.02832,-0.54932 7.44629,-1.15967 3.41797,-0.61035 5.98144,-1.2207 2.62452,-0.61035 4.02832,-1.09863 z"
       style="font-family:Aldhabi;-inkscape-font-specification:Aldhabi;fill:#ffffff"
       id="path12159"
       inkscape:export-filename="C:\Users\Core\Downloads\Logo DS.png"
       inkscape:export-xdpi="1303.26"
       inkscape:export-ydpi="1303.26" />
    <path
       d="m 561.69995,615.42303 q 0,0 0,0 z"
       style="font-family:Aldhabi;-inkscape-font-specification:Aldhabi;fill:#ffffff"
       id="path12161"
       inkscape:export-filename="C:\Users\Core\Downloads\Logo DS.png"
       inkscape:export-xdpi="1303.26"
       inkscape:export-ydpi="1303.26" />
    <path
       d="m 608.63599,586.49237 q 0.61035,6.71387 3.05175,11.2915 2.50245,4.51661 6.04248,7.26319 3.54004,2.74658 7.8125,3.96728 4.27247,1.15967 8.48389,1.15967 3.72315,0 6.89697,-0.85449 3.23487,-0.85449 5.49317,-2.56348 2.31933,-1.77002 3.60107,-4.33349 1.34278,-2.62452 1.34278,-6.16455 0,-4.21143 -1.83106,-7.26319 -1.83105,-3.11279 -4.94385,-5.61523 -3.11279,-2.50244 -7.26318,-4.63867 -4.15039,-2.13623 -8.78906,-4.45557 -3.17383,-1.52588 -6.34766,-3.17383 -3.11279,-1.64795 -5.98144,-3.54004 -2.86866,-1.89209 -5.3711,-4.08935 -2.4414,-2.19727 -4.27246,-4.88282 -1.83105,-2.68554 -2.86865,-5.85937 -1.0376,-3.23486 -1.0376,-7.08008 0,-6.53076 2.86865,-11.90185 2.92969,-5.43213 7.93457,-9.27735 5.00489,-3.90625 11.71875,-6.04248 6.77491,-2.13623 14.4043,-2.13623 5.00488,0 10.0708,0.85449 5.12695,0.8545 9.0332,2.0752 0.79346,0.30517 1.28174,0.54931 0.48828,0.24415 0.73242,0.61036 0.24415,0.36621 0.30518,0.91552 0.12207,0.54932 0.12207,1.46485 v 7.93457 q 0,3.05176 0.061,6.46972 0.061,3.41797 0.1831,6.22559 l -5.37109,0.48828 q -1.28174,-10.13183 -6.71387,-15.01465 -5.43213,-4.88281 -14.89258,-4.88281 -3.66211,0 -6.89697,0.79346 -3.17383,0.73242 -5.5542,2.4414 -2.38037,1.70899 -3.78418,4.39454 -1.34277,2.62451 -1.34277,6.34765 0,4.21143 1.70898,7.38526 1.77002,3.11279 4.76074,5.67626 2.99073,2.56348 7.01905,4.76075 4.02832,2.13623 8.60595,4.33349 5.12696,2.50244 10.13184,5.12696 5.00488,2.62451 8.97217,5.98144 3.96728,3.2959 6.40869,7.6294 2.44141,4.33349 2.44141,10.19287 0,4.45556 -1.46485,8.30078 -1.46484,3.78418 -4.08935,6.95801 -2.56348,3.11279 -6.10352,5.61523 -3.54004,2.44141 -7.75146,4.15039 -4.15039,1.64795 -8.8501,2.50244 -4.63867,0.91553 -9.46045,0.91553 -4.3335,0 -9.0332,-0.67139 -4.69971,-0.67138 -8.60596,-1.77002 -3.84522,-1.15966 -6.34766,-2.68554 -2.50244,-1.52588 -2.50244,-3.17383 v -0.18311 q 0,-0.1831 0.061,-0.91552 0,-0.67139 0.061,-2.0752 0,-1.34277 0.061,-3.78418 0.061,-2.50244 0.1831,-6.22559 0.12207,-3.72314 0.24414,-9.0332 z"
       style="font-family:Aldhabi;-inkscape-font-specification:Aldhabi;fill:#ffffff"
       id="path12163"
       inkscape:export-filename="C:\Users\Core\Downloads\Logo DS.png"
       inkscape:export-xdpi="1303.26"
       inkscape:export-ydpi="1303.26" />
    <path
       d="m 692.6814,580.14471 q 0.24414,7.08008 2.01416,12.08497 1.83105,4.94384 4.94384,8.11767 3.17383,3.11279 7.50733,4.57764 4.39453,1.46484 9.70459,1.46484 2.13623,0 4.15039,-0.24414 2.01416,-0.24414 4.08935,-0.85449 2.13623,-0.61035 4.45557,-1.58692 2.38037,-0.97656 5.24902,-2.4414 l 2.44141,4.02832 q -15.13672,12.20703 -30.39551,12.20703 -5.37109,0 -10.62011,-1.64795 -5.24903,-1.64795 -9.39942,-5.37109 -4.15039,-3.78418 -6.71387,-9.82666 -2.56347,-6.10352 -2.56347,-14.95362 0,-9.88769 3.17383,-17.21191 3.23486,-7.32422 8.42285,-12.146 5.24902,-4.88281 11.84082,-7.26318 6.59179,-2.38037 13.3667,-2.38037 5.92041,0 9.94873,1.70898 4.08935,1.70899 6.53076,4.63867 2.44141,2.86866 3.479,6.71387 1.09864,3.84522 1.09864,8.11768 0,2.74658 -0.42725,5.37109 -0.36621,2.56348 -1.0376,5.18799 z m 27.09961,-6.59179 q 0.30517,-1.22071 0.36621,-2.31934 0.12207,-1.15967 0.12207,-2.01416 0,-3.11279 -0.73242,-5.85937 -0.73243,-2.74659 -2.31934,-4.76075 -1.52588,-2.01416 -3.90625,-3.17382 -2.31934,-1.15967 -5.61524,-1.15967 -2.86865,0 -5.55419,1.0376 -2.62452,0.97656 -4.69971,3.35693 -2.0752,2.38037 -3.41797,6.28662 -1.28174,3.90625 -1.46484,9.70459 z"
       style="font-family:Aldhabi;-inkscape-font-specification:Aldhabi;fill:#ffffff"
       id="path12165"
       inkscape:export-filename="C:\Users\Core\Downloads\Logo DS.png"
       inkscape:export-xdpi="1303.26"
       inkscape:export-ydpi="1303.26" />
    <path
       d="m 741.08228,549.13885 q 0.42724,0.061 1.89209,0.18311 1.46484,0.061 3.6621,0.12207 2.19727,0.061 4.94385,0.12207 2.80762,0.061 5.79834,0.061 2.74658,0 4.57764,-0.061 1.89209,-0.061 3.17383,-0.1831 1.52588,3.78418 3.60107,9.15527 2.0752,5.37109 4.39453,11.65771 2.31934,6.22559 4.76074,13.12256 2.50245,6.89698 4.82178,13.79395 h 0.48828 q 3.60108,-7.93457 6.46973,-14.64844 2.92969,-6.7749 4.94385,-11.84082 2.01416,-5.06592 3.11279,-8.30078 1.09863,-3.23486 1.09863,-4.15039 0,-1.58692 -2.92968,-2.31934 -2.86866,-0.73242 -8.05664,-1.09863 l 1.46484,-5.12695 q 0.42724,0.061 1.95312,0.12207 1.58692,0.061 3.66211,0.12207 2.13623,0.061 4.45557,0.12207 2.38037,0 4.45557,0 3.54004,0 6.22558,-0.061 2.74658,-0.12207 4.82178,-0.24414 2.07519,-0.12207 3.54004,-0.24414 1.52588,-0.1831 2.62451,-0.30518 0,1.34278 -0.61035,2.50245 -0.54932,1.09863 -1.95313,2.01416 -1.34277,0.91552 -3.60107,1.58691 -2.19727,0.61035 -5.5542,0.97656 -1.2207,2.0752 -3.23486,6.10352 -1.95313,3.96728 -4.39453,9.15527 -2.38038,5.18799 -5.06592,11.16944 -2.68555,5.92041 -5.31006,11.84082 -2.56348,5.85937 -4.94385,11.2915 -2.38037,5.43213 -4.15039,9.64355 -2.38037,0.30518 -4.45557,0.73243 -2.07519,0.42724 -4.08935,0.97656 -1.70899,-5.61524 -3.72315,-11.47461 -1.95312,-5.85938 -4.02832,-11.53564 -2.01416,-5.67627 -4.02832,-10.98633 -2.01416,-5.31006 -3.84521,-9.76563 -1.77002,-4.45556 -3.2959,-7.8125 -1.46484,-3.41797 -2.44141,-5.31006 -0.97656,-1.77002 -2.01416,-2.80761 -1.03759,-1.0376 -2.4414,-1.58692 -1.40381,-0.61035 -3.41797,-0.85449 -1.95313,-0.30518 -4.82178,-0.61035 z m 9.27734,5.24903 z m 58.77685,1.46484 z m -8.23974,-1.09863 z"
       style="font-family:Aldhabi;-inkscape-font-specification:Aldhabi;fill:#ffffff"
       id="path12167"
       inkscape:export-filename="C:\Users\Core\Downloads\Logo DS.png"
       inkscape:export-xdpi="1303.26"
       inkscape:export-ydpi="1303.26" />
    <path
       d="m 834.46606,580.14471 q 0.24415,7.08008 2.01416,12.08497 1.83106,4.94384 4.94385,8.11767 3.17383,3.11279 7.50733,4.57764 4.39453,1.46484 9.70459,1.46484 2.13623,0 4.15039,-0.24414 2.01416,-0.24414 4.08935,-0.85449 2.13623,-0.61035 4.45557,-1.58692 2.38037,-0.97656 5.24902,-2.4414 l 2.44141,4.02832 q -15.13672,12.20703 -30.39551,12.20703 -5.37109,0 -10.62012,-1.64795 -5.24902,-1.64795 -9.39941,-5.37109 -4.15039,-3.78418 -6.71387,-9.82666 -2.56347,-6.10352 -2.56347,-14.95362 0,-9.88769 3.17382,-17.21191 3.23487,-7.32422 8.42286,-12.146 5.24902,-4.88281 11.84082,-7.26318 6.59179,-2.38037 13.36669,-2.38037 5.92042,0 9.94874,1.70898 4.08935,1.70899 6.53076,4.63867 2.4414,2.86866 3.479,6.71387 1.09863,3.84522 1.09863,8.11768 0,2.74658 -0.42724,5.37109 -0.36621,2.56348 -1.0376,5.18799 z m 27.09961,-6.59179 q 0.30518,-1.22071 0.36621,-2.31934 0.12208,-1.15967 0.12208,-2.01416 0,-3.11279 -0.73243,-5.85937 -0.73242,-2.74659 -2.31933,-4.76075 -1.52588,-2.01416 -3.90625,-3.17382 -2.31934,-1.15967 -5.61524,-1.15967 -2.86865,0 -5.5542,1.0376 -2.62451,0.97656 -4.6997,3.35693 -2.0752,2.38037 -3.41797,6.28662 -1.28174,3.90625 -1.46485,9.70459 z"
       style="font-family:Aldhabi;-inkscape-font-specification:Aldhabi;fill:#ffffff"
       id="path12169"
       inkscape:export-filename="C:\Users\Core\Downloads\Logo DS.png"
       inkscape:export-xdpi="1303.26"
       inkscape:export-ydpi="1303.26" />
    <path
       d="m 913.38452,547.3078 q -0.1831,2.31934 -0.36621,5.49316 -0.12207,3.1128 -0.12207,7.32422 l 0.36621,0.12207 q 2.86865,-2.68554 5.85938,-5.12695 2.99072,-2.44141 6.22558,-4.3335 3.2959,-1.89209 6.83594,-2.99072 3.60107,-1.09863 7.62939,-1.09863 5.49317,0 9.21631,2.13623 3.72315,2.13623 5.98145,5.92041 2.2583,3.72314 3.17383,8.8501 0.97656,5.06591 0.97656,11.04736 0,2.19727 -0.12207,4.88281 -0.12207,2.68555 -0.30518,5.5542 -0.12207,2.80762 -0.30517,5.67627 -0.18311,2.86865 -0.36621,5.3711 -0.12207,2.50244 -0.24414,4.57763 -0.12208,2.01416 -0.12208,3.23487 0,1.83105 0.36622,2.99072 0.42724,1.15967 1.70898,1.89209 1.28174,0.73242 3.72314,1.2207 2.50245,0.42725 6.65284,0.85449 l -2.19727,5.12696 q -0.48828,-0.061 -2.13623,-0.18311 -1.58691,-0.12207 -3.96728,-0.24414 -2.38038,-0.061 -5.3711,-0.12207 -2.92969,-0.061 -6.16455,-0.061 -2.56348,0 -4.76074,0.061 -2.19727,0.061 -3.96729,0.18311 0.61036,-5.3711 1.0376,-9.8877 0.42725,-4.57764 0.67139,-8.72803 0.24414,-4.15039 0.36621,-8.17871 0.12207,-4.02832 0.12207,-8.36181 0,-4.02833 -0.30518,-7.99561 -0.24414,-3.96729 -1.52588,-7.08008 -1.2207,-3.11279 -3.78418,-5.06592 -2.56347,-1.95312 -7.20214,-1.95312 -2.56348,0 -5.00489,0.61035 -2.4414,0.61035 -4.6997,1.70898 -2.19727,1.09864 -4.21143,2.56348 -1.95312,1.40381 -3.66211,3.05176 -0.12207,2.19726 -0.12207,4.5166 -0.061,2.38037 -0.061,4.57764 -0.061,2.19726 -0.061,4.08935 v 11.53565 q 0,3.54004 0.061,6.10351 0.061,2.56348 0.12207,4.45557 0.061,1.89209 0.1831,3.54004 0.061,1.52588 0.30518,2.50244 0.30517,0.91553 1.40381,1.52588 1.09863,0.54932 3.35693,0.91553 2.31934,0.36621 6.40869,0.79345 l -2.19726,5.12696 q -0.48829,-0.061 -2.13623,-0.18311 -1.58692,-0.12207 -3.90625,-0.24414 -2.31934,-0.061 -5.18799,-0.12207 -2.86866,-0.061 -5.79834,-0.061 -3.66211,0 -6.83594,0.12207 -3.11279,0.12208 -5.49316,0.24415 -2.38038,0.12207 -3.84522,0.24414 -1.40381,0.1831 -1.70898,0.24414 0,-0.42725 0.12207,-1.34278 0.1831,-0.97656 1.09863,-2.01416 0.91553,-1.03759 2.86865,-2.01416 2.01416,-0.97656 5.67627,-1.46484 0.24414,-2.38037 0.36621,-5.24902 0.12207,-2.92969 0.18311,-5.67627 0.061,-2.80762 0.061,-5.06592 v -3.2959 q 0,-6.5918 -0.061,-11.35254 -0.061,-4.82178 -0.12207,-8.11767 -0.061,-3.35694 -0.18311,-5.3711 -0.061,-2.01416 -0.12207,-3.11279 -0.12207,-2.01416 -0.42724,-3.05176 -0.30518,-1.09863 -1.40381,-1.58691 -1.09864,-0.54932 -3.2959,-0.61036 -2.13623,-0.12207 -5.98145,-0.12207 l 1.22071,-5.00488 q 4.15039,-0.42724 7.93457,-1.09863 3.84521,-0.67139 7.01904,-1.40381 3.17383,-0.73242 5.61523,-1.40381 2.44141,-0.73242 3.84522,-1.2207 z"
       style="font-family:Aldhabi;-inkscape-font-specification:Aldhabi;fill:#ffffff"
       id="path12171"
       inkscape:export-filename="C:\Users\Core\Downloads\Logo DS.png"
       inkscape:export-xdpi="1303.26"
       inkscape:export-ydpi="1303.26" />
    <path
       d="m 1028.9851,607.12225 q -2.5024,2.13623 -5.249,4.02832 -2.6856,1.83106 -5.7984,3.2959 -3.1127,1.40381 -6.7138,2.19727 -3.6011,0.85449 -7.8736,0.85449 -5.24898,0 -8.72799,-1.40381 -3.479,-1.40381 -5.55419,-4.63867 -2.0752,-3.23486 -2.92969,-8.42285 -0.85449,-5.24903 -0.85449,-12.87842 0,-2.01416 0.061,-4.69971 0.061,-2.68554 0.12207,-5.7373 0.061,-2.99072 0.18311,-6.16455 0.12207,-3.23487 0.24414,-6.28662 0.1831,-3.05176 0.30517,-5.73731 0.18311,-2.68555 0.30518,-4.69971 -2.01416,0.061 -3.84522,0.18311 -1.77002,0.061 -3.23486,0.18311 -1.46484,0.12207 -2.50244,0.24414 -0.97656,0.061 -1.40381,0.12207 0,-0.61036 0.30518,-1.70899 0.36621,-1.15967 1.52588,-2.31933 1.15966,-1.15967 3.41796,-2.13623 2.2583,-0.97657 6.10352,-1.28174 l 0.85449,-9.76563 q 0.061,-0.97656 0.12207,-1.70898 0.12207,-0.73242 0.24414,-1.28174 0.18311,-0.61035 0.42725,-1.0376 0.24414,-0.48828 0.67139,-0.97656 0.61035,-0.73242 2.01416,-2.19727 1.46484,-1.46484 3.29589,-3.11279 1.83106,-1.64795 3.84522,-3.2959 2.01414,-1.64795 3.78414,-2.74658 l 1.2207,0.73242 q -1.2817,12.45117 -1.831,25.26856 2.4414,0 5.4321,0 3.0518,-0.061 6.4087,-0.12207 3.3569,-0.061 6.8359,-0.12207 3.479,-0.12207 6.836,-0.24414 l -1.9531,7.08007 q -11.1695,0.36621 -19.7754,0.36621 h -4.1504 q -0.061,1.58692 -0.1831,4.63868 -0.1831,3.05175 -0.3052,6.83593 -0.1221,3.72315 -0.2441,7.8125 -0.1221,4.08936 -0.1221,7.69043 0,6.95801 0.5493,11.53565 0.5493,4.57764 1.8921,7.32422 1.3428,2.74658 3.6011,3.84521 2.2583,1.09863 5.7373,1.09863 4.0893,0 7.6904,-1.2207 3.6011,-1.2207 7.019,-3.17383 z"
       style="font-family:Aldhabi;-inkscape-font-specification:Aldhabi;fill:#ffffff"
       id="path12173"
       inkscape:export-filename="C:\Users\Core\Downloads\Logo DS.png"
       inkscape:export-xdpi="1303.26"
       inkscape:export-ydpi="1303.26" />
    <path
       d="m 1075.616,549.62714 q 0.4272,0.061 1.9531,0.12207 1.5259,0.061 3.6011,0.12207 2.0752,0.061 4.4555,0.12207 2.3804,0 4.4556,0 7.9346,0 12.085,-0.36621 4.1504,-0.36621 5.1879,-0.48829 0,1.34278 -0.6103,2.50245 -0.5493,1.09863 -1.9531,2.01416 -1.3428,0.91552 -3.6621,1.58691 -2.3194,0.61035 -5.7373,0.97656 -3.0518,8.05664 -5.9205,15.93018 -2.8076,7.87353 -5.4931,15.38086 -2.6856,7.50732 -5.3101,14.52637 -2.5635,7.01904 -5.1269,13.36669 -3.9063,9.70459 -7.9346,17.76124 -4.0283,8.11767 -8.4839,13.91601 -4.3945,5.79834 -9.3994,9.0332 -4.9438,3.23487 -10.6812,3.23487 -5.1269,0 -7.9345,-2.44141 -2.8076,-2.44141 -2.8076,-6.95801 0,-1.09863 0.2441,-2.50244 0.1831,-1.34277 0.7324,-2.74658 2.3804,0.67139 4.5777,0.91553 2.1972,0.30517 4.0893,0.30517 6.1035,0 10.5591,-2.31933 4.5166,-2.2583 7.9956,-6.34766 3.54,-4.08935 6.2866,-9.70459 2.8076,-5.5542 5.5542,-12.146 h -0.122 q -0.3052,0 -0.8545,0.061 -0.5494,0.061 -1.2207,0.12207 -0.7325,0.061 -1.4039,0.18311 -0.7324,0.061 -1.2817,0.12207 -2.0141,-5.73731 -4.2114,-11.65772 -2.1362,-5.92041 -4.2725,-11.59668 -2.1362,-5.67627 -4.2114,-10.86426 -2.0142,-5.18798 -3.7842,-9.39941 -1.709,-4.27246 -3.1128,-7.38525 -1.4038,-3.17383 -2.2583,-4.76075 -1.0376,-1.70898 -2.0752,-2.74658 -1.0376,-1.0376 -2.5024,-1.58691 -1.4038,-0.61035 -3.418,-0.91553 -2.0141,-0.30518 -4.9438,-0.61035 l 1.4648,-5.24903 q 0.4273,0.061 1.8921,0.18311 1.4648,0.061 3.6621,0.12207 2.1973,0.061 4.9439,0.12207 2.8076,0.061 5.7983,0.061 2.7466,0 4.5166,-0.061 1.8311,-0.061 3.1128,-0.1831 1.5259,3.78418 3.7842,9.2163 2.1972,5.49317 4.7607,12.146 2.6245,6.5918 5.4321,14.09912 2.8687,7.50733 5.6763,15.4419 h 0.4883 q 1.2817,-3.2959 2.6855,-7.14112 1.4649,-3.90625 2.8687,-7.93457 1.4648,-4.02832 2.7466,-7.93457 1.3428,-3.96728 2.3193,-7.44629 1.0376,-3.479 1.5869,-6.22558 0.6104,-2.80762 0.6104,-4.45557 0,-1.2207 -0.4273,-1.95312 -0.4272,-0.73243 -1.6479,-1.15967 -1.1597,-0.48828 -3.2959,-0.73242 -2.1362,-0.24414 -5.4932,-0.54932 z m -37.9029,4.76074 z m 58.3496,1.46484 z m -8.4838,-1.09863 z"
       style="font-family:Aldhabi;-inkscape-font-specification:Aldhabi;fill:#ffffff"
       id="path12175"
       inkscape:export-filename="C:\Users\Core\Downloads\Logo DS.png"
       inkscape:export-xdpi="1303.26"
       inkscape:export-ydpi="1303.26" />
  </g>
</svg>
